<svg width="193" height="138" viewBox="0 0 193 138" fill="none" xmlns="http://www.w3.org/2000/svg">
<path d="M93.5236 135.082C87.1588 132.722 85.0134 131.435 85.0134 129.934C85.0134 129.505 82.7964 125.429 80.0788 120.925L75.2158 112.774L67.1346 108.126C59.697 103.908 58.9818 103.622 58.2667 104.837C54.834 110.629 50.257 113.56 41.4606 115.634C37.6703 116.563 33.594 117.85 32.4497 118.422C28.7309 120.353 27.3006 119.924 25.6558 116.349C24.7976 114.418 24.2255 111.701 24.2255 109.342V105.481L20.2921 102.835C16.0012 99.9755 15.8582 99.5465 17.1455 94.041C17.8606 90.9665 17.7891 90.2515 16.4303 87.8205L14.857 85.032L16.3588 78.311L17.9321 71.59L13.4267 64.011C9.49335 57.29 8.56366 56.289 5.77457 55.002C3.41457 54.001 2.34185 53 1.55518 50.998C-0.161181 46.9225 0.196395 44.0625 3.70064 35.1965C7.06185 26.7595 7.77698 25.7585 14.4994 20.682C16.7164 18.966 17.074 18.251 17.074 15.82C17.074 13.389 17.5746 12.388 20.2206 9.59947C23.2243 6.45347 23.5103 6.31048 25.1552 7.23998C26.8715 8.09798 27.3006 7.95499 32.1637 4.52299C35.0243 2.52099 38.0994 0.876465 39.0291 0.876465C40.6024 0.876465 40.674 1.1625 40.674 5.381C40.674 9.099 40.2449 10.672 38.457 13.961L36.24 18.0365L38.8146 21.4685L41.3176 24.9005L49.0412 25.83C53.8327 26.402 58.1237 27.3315 60.4121 28.3325C63.9879 29.977 64.0594 30.0485 63.9879 33.0515C63.9164 36.0545 64.0594 36.269 67.4206 38.1995L70.9249 40.273L76.1455 38.7L81.4376 37.127L84.8703 39.987C87.9455 42.561 88.3031 43.133 88.6606 46.708C88.8752 49.139 90.0194 52.571 91.8073 56.0745L94.5964 61.6515H99.1734C103.607 61.6515 103.893 61.723 108.613 65.5125C113.047 69.016 113.977 69.445 119.77 70.446L126.063 71.59L131.069 77.024L136.075 82.3865H142.941H149.878L153.954 79.026L158.03 75.6655L162.107 80.0985C165.969 84.2455 166.398 84.5315 169.401 84.5315C171.69 84.5315 173.621 85.175 176.839 87.034C179.199 88.464 181.63 89.894 182.202 90.18C182.846 90.5375 183.204 91.467 183.061 92.611C182.632 96.1145 185.421 100.762 189.282 103.193C191.285 104.408 192.715 105.767 192.501 106.124C191.642 107.411 182.274 113.131 180.915 113.131C180.2 113.131 178.984 112.488 178.269 111.701C177.554 110.915 176.553 110.271 176.052 110.271C175.552 110.271 172.619 111.773 169.616 113.632L164.181 116.992L158.889 114.275C153.668 111.558 153.453 111.558 148.233 111.987C142.941 112.488 142.869 112.488 142.082 110.629C141.582 109.628 140.509 108.627 139.722 108.484C136.719 107.912 125.205 107.483 124.49 107.983C124.061 108.269 122.416 111.916 120.842 116.063C116.838 126.716 116.838 126.716 113.619 126.716C111.045 126.716 110.544 127.074 106.396 132.007C103.893 135.01 101.319 137.37 100.747 137.37C100.175 137.37 96.8849 136.297 93.5236 135.082Z" fill="#F5F5F5"/>
</svg>
