<svg width="58" height="66" viewBox="0 0 58 66" fill="none" xmlns="http://www.w3.org/2000/svg">
<path d="M37.6618 65.4895C35.0158 65.132 33.7285 64.1311 33.7285 62.3436C33.7285 60.4846 28.8655 51.7616 27.5782 51.2611C27.0061 51.0466 25.8618 51.69 25.0752 52.7625C23.6448 54.55 23.2158 54.6216 18.8533 54.4786L14.0618 54.264L13.7042 51.404C13.4897 49.831 12.2024 46.9711 10.9152 45.0406L8.55515 41.537L9.77091 37.819L11.0582 34.0295L8.41212 30.7406C5.62303 27.3801 5.26545 27.1655 2.40485 27.38C1.11757 27.523 0.759998 27.2371 0.974544 26.2361C1.18909 25.1636 1.90424 24.949 4.5503 24.949C6.4097 24.949 8.3406 24.5201 8.84121 23.9481C9.84242 22.9471 8.91273 21.9461 4.0497 18.3711C1.97576 16.8696 1.97576 16.7981 3.26303 15.3681C4.26424 14.2241 5.48 13.8665 7.76848 13.8665C10.5576 13.8665 11.3442 14.2956 15.2776 17.8706L19.64 21.9461L21.857 19.4436C23.0727 18.0851 25.2182 15.368 26.577 13.509C28.4364 10.935 29.7951 9.79103 31.9406 9.21903C36.5176 7.86053 37.8764 6.85954 38.7345 3.99954C40.0933 -0.0759634 40.5224 -0.218955 44.5988 2.35505C47.7454 4.28555 48.7467 4.57153 50.8921 4.21403C56.2558 3.14153 56.1127 3.07006 57.257 8.00356C58.4727 13.0086 58.5442 12.8656 53.3951 16.4406C51.9648 17.4416 51.9648 17.4416 53.6097 20.5161C55.2545 23.5906 55.2545 23.6621 54.0388 26.2361C52.823 28.7386 52.6085 28.8815 49.3188 28.8815C45.743 28.8815 41.5951 30.4545 41.5951 31.7415C41.5951 32.1705 42.0958 33.5291 42.7394 34.6731C43.6691 36.5321 43.7406 37.4616 43.097 40.0356C42.0242 44.1111 43.24 48.401 45.8861 50.3315C47.3879 51.404 47.7454 52.119 47.4594 53.835C47.1733 55.98 47.2448 56.0515 50.177 56.0515H53.1091L51.4642 58.9831C49.8194 61.9146 49.8194 61.9146 46.4582 61.4856C43.24 61.1281 42.9539 61.1995 41.9527 63.2015C40.6655 65.6325 40.3794 65.7755 37.6618 65.4895Z" fill="#F5F5F5"/>
</svg>
