<svg width="65" height="60" viewBox="0 0 65 60" fill="none" xmlns="http://www.w3.org/2000/svg">
<path d="M43.0788 57.4756C42.0061 54.9731 40.7188 54.4725 33.7103 53.972C31.3503 53.7575 24.4848 54.973 23.5552 55.7595C22.6255 56.546 22.4109 56.1885 21.6242 52.542C21.0521 49.968 20.1939 50.111 17.5479 53.114C15.4024 55.4735 15.1164 55.6165 10.4679 55.6165C3.96 55.6165 2.24364 54.83 1.17091 51.6125C0.527276 49.6105 0.527276 48.3235 1.17091 45.964C1.88606 43.39 1.81455 42.532 0.813336 40.6015C-0.831512 37.384 0.0266662 36.812 6.74909 36.669C9.68121 36.669 9.89576 36.4546 11.7552 33.1656L13.6145 29.7336L12.1127 27.0165L10.5394 24.2995L13.4715 21.8686L16.4752 19.3661L15.5455 15.1475C15.0449 12.788 14.4727 10.2855 14.3297 9.49902C14.0436 8.42652 14.6158 7.71152 16.6182 6.63902C19.1927 5.20902 19.9794 4.35103 20.7661 1.77703C21.0521 0.776032 21.9818 0.561523 25.4146 0.561523C27.7746 0.561523 29.92 0.91905 30.2061 1.34805C30.4206 1.70555 31.6364 2.70652 32.8521 3.42152C33.9964 4.13652 35.8558 6.28155 36.857 8.14055C38.6449 11.4296 38.9309 11.644 43.937 13.074C46.7976 13.8605 49.4436 15.0045 49.8727 15.5765C50.6594 16.935 50.7309 21.7256 49.8727 24.5856C49.0145 27.5171 49.9442 28.8755 53.0909 29.4475C54.9503 29.805 56.023 30.5916 57.0958 32.4506C57.9539 33.8806 59.5988 35.4535 60.743 35.954C62.2449 36.526 63.1746 37.67 63.8182 39.529C64.3188 41.0305 64.6049 42.5321 64.3903 42.8181C64.2473 43.1041 61.3867 44.82 58.097 46.6075C51.2315 50.3255 50.7309 50.8261 50.3733 54.0436C50.2303 55.9026 49.5867 56.689 47.1552 58.119L44.1515 59.9065L43.0788 57.4756Z" fill="#F5F5F5"/>
</svg>
