<svg width="63" height="84" viewBox="0 0 63 84" fill="none" xmlns="http://www.w3.org/2000/svg">
<path d="M23.3079 80.9235C20.9479 78.993 20.3757 78.7785 18.8024 79.4935C16.943 80.3515 11.937 80.6375 11.2218 79.9225C11.0073 79.708 11.1503 78.421 11.5794 77.0625C12.08 75.4895 12.08 74.131 11.6509 73.0585C11.1503 71.9145 11.2933 70.413 12.223 67.6245C14.0824 61.9045 14.0824 61.7615 10.0061 61.7615H6.50182L6.8594 57.972C7.21698 54.6115 6.8594 53.3245 3.92727 46.4605C1.28121 40.1685 0.637573 37.952 0.637573 34.52C0.637573 30.659 0.923642 29.801 3.99879 25.225C6.35879 21.65 7.50303 19.1475 7.78909 16.8595L8.14666 13.499L13.5103 11.8545C19.9467 9.8525 20.5188 9.42352 19.303 7.13552C17.8727 4.56152 18.5164 3.84651 23.3079 1.98751L27.7418 0.343018L29.5297 2.70251C30.96 4.63301 31.9612 5.13351 34.8933 5.56251C38.6836 6.06301 40.257 7.49303 42.8315 12.641C43.4036 13.785 44.6909 15.0005 45.6921 15.358C46.6933 15.787 48.1236 16.645 48.9103 17.36C51.6279 19.791 59.9951 24.0095 61.4254 23.652C63.2133 23.1515 63.2133 24.2955 61.497 29.229L60.2097 32.804L56.1333 33.0185C51.8424 33.233 48.9103 32.0175 46.0497 28.8715C45.3345 28.085 44.3333 27.4415 43.7612 27.4415C41.9733 27.4415 34.9648 32.5895 34.9648 33.8765C34.9648 36.093 38.6836 43.815 39.8994 44.1725C44.7624 45.6025 51.6279 46.7465 54.417 46.6035C56.2764 46.532 58.0642 46.675 58.2788 46.8895C58.5648 47.1755 57.9212 48.82 56.8485 50.6075C55.0606 53.682 54.9176 53.7535 52.8436 53.0385C51.6279 52.6095 49.983 52.4665 49.0533 52.681C47.1939 53.1815 39.9709 59.831 39.9709 61.0465C39.9709 61.547 38.5406 65.408 36.6812 69.6265C34.1067 75.7755 33.1055 77.42 31.8897 77.6345C30.96 77.706 29.7442 78.85 28.8861 80.4945C28.0994 81.996 27.1697 83.2115 26.7406 83.14C26.383 83.14 24.8097 82.139 23.3079 80.9235Z" fill="#D9D9D9"/>
</svg>
