<svg width="50" height="132" viewBox="0 0 50 132" fill="none" xmlns="http://www.w3.org/2000/svg">
<path d="M13.326 130.439C12.6824 130.01 13.1831 128.437 15.257 124.505C16.8303 121.573 18.1176 118.785 18.1176 118.284C18.1176 117.784 16.0437 114.066 13.4691 109.99C10.2509 104.771 7.6764 101.696 4.88731 99.48C2.74186 97.764 0.953979 95.8335 0.953979 95.19C0.953979 93.76 3.0994 87.2535 3.95758 86.181C4.31516 85.752 6.74665 85.037 9.39272 84.5365C15.1139 83.607 18.1176 82.5345 18.1176 81.3905C18.1176 80.9615 17.6885 79.317 17.1164 77.744C16.5443 76.171 15.9006 71.452 15.6146 67.3765C15.257 61.728 14.6848 58.868 13.3975 56.008C11.6097 52.004 11.2521 50.2165 12.2533 50.2165C12.6109 50.2165 13.3975 49.7875 14.1127 49.2155C15.4 48.3575 15.4 48.143 14.2558 46.4985C13.1831 44.7825 13.1831 44.568 14.9709 41.3505L16.8303 38.0615H22.3369H27.8437L31.777 34.558L35.6388 31.0545L33.7079 27.0505L31.777 23.118L34.423 22.9035C36.497 22.689 37.1406 22.3315 37.4982 20.9015C38.2849 18.113 38.2134 11.0345 37.4267 10.534C37.0691 10.248 35.5672 10.391 34.1369 10.82C32.1345 11.392 31.0618 11.249 29.4885 10.4625C28.3442 9.89047 27.4146 9.17548 27.4146 8.81798C27.4146 8.53198 28.7018 6.38698 30.3467 4.17048L33.2788 0.0949707L36.5685 2.45446C38.9285 4.17046 40.0012 5.45749 40.1442 6.81599C40.3588 8.24599 41.0024 9.03247 42.7188 9.74747C44.6497 10.534 45.1503 11.1775 45.5079 13.4655C45.7939 14.967 46.6522 18.971 47.4388 22.3315C48.8691 27.837 49.0121 30.983 49.3697 58.0815L49.7273 87.754L45.1503 97.764L40.5733 107.702L31.777 110.348C26.9855 111.849 22.6231 113.351 22.1224 113.78C21.5503 114.209 21.0497 116.711 20.8351 119.5C20.6206 122.217 19.8339 125.863 19.1188 127.722C18.046 130.368 17.4025 131.011 15.9722 131.011C14.971 130.94 13.8267 130.725 13.326 130.439Z" fill="#D9D9D9"/>
</svg>
