<svg width="45" height="38" viewBox="0 0 45 38" fill="none" xmlns="http://www.w3.org/2000/svg">
<path d="M9.36968 32.8835C7.93938 28.236 2.50423 17.0819 0.501806 14.5794C-0.0703154 13.8644 0.215736 13.507 1.43149 13.221C2.93331 12.792 3.00483 12.5774 2.50422 7.78695C1.9321 1.70945 2.07513 1.56644 9.0121 1.56644C13.8036 1.56644 14.2327 1.70944 17.88 4.42644C20.0254 5.99944 21.8848 7.28644 22.0279 7.28644C22.1709 7.28644 23.9588 5.85644 26.0327 4.06894L29.823 0.85144L31.3963 2.99644C33.1842 5.49894 34.3285 5.64194 36.1163 3.71144C37.7612 1.85244 38.7624 1.85248 40.9079 3.92598C42.0521 4.99848 42.9818 7.00045 43.6254 9.93195L44.5551 14.365L39.263 20.2994C32.9697 27.3064 33.6848 26.7345 27.8921 29.2369C25.0315 30.4524 22.0994 32.3829 20.3115 34.242C18.4521 36.101 16.6642 37.3164 15.663 37.3164C14.7333 37.3164 13.303 37.4594 12.5163 37.6739C11.2291 38.0314 10.8 37.4595 9.36968 32.8835Z" fill="#D9D9D9"/>
</svg>
