<svg width="61" height="51" viewBox="0 0 61 51" fill="none" xmlns="http://www.w3.org/2000/svg">
<path d="M41.0618 46.365C39.4169 44.0055 37.8436 42.2895 37.486 42.504C36.9139 42.8615 35.3406 38.643 35.3406 36.641C35.3406 35.7115 30.8351 32.1365 29.6194 32.1365C29.1188 32.1365 27.903 32.78 26.9018 33.5665L24.9709 35.068L23.3976 33.066C22.4679 31.922 21.7527 30.7065 21.7527 30.2775C21.7527 29.8485 20.966 28.776 20.1079 27.918C19.1782 27.06 18.0339 25.058 17.5333 23.485C16.8182 20.9825 16.4606 20.6965 14.3867 20.6965C11.7406 20.625 11.0254 20.2675 9.38059 17.6935C8.37938 16.049 7.59272 15.6915 4.44605 15.5485C1.79999 15.4055 0.584229 14.9765 0.441199 14.2615C0.298168 13.475 0.87029 13.1175 2.22908 13.1175C3.37332 13.1175 5.80484 13.046 7.66423 12.9745L11.1685 12.8315L10.8824 9.82852L10.6679 6.82551L14.6012 5.53852C16.7466 4.82352 21.4667 3.32201 25.1139 2.17801L31.6218 0.104492L34.1963 1.82051C35.9127 3.03601 37.2715 3.3935 38.4872 3.1075C40.3466 2.6785 40.4897 2.9645 42.206 12.4025C42.7782 15.5485 45.0666 21.1255 45.9963 21.6975C46.3539 21.912 49.4291 21.1255 52.8618 19.9815C56.2945 18.766 59.4412 18.051 59.7273 18.194C61.0145 18.9805 60.2994 21.4115 58.2254 23.771C55.5794 26.774 55.5794 27.5605 57.8679 28.1325C60.1563 28.7045 62.0157 32.1365 60.3709 32.7085C59.7988 32.923 57.3672 33.781 55.0072 34.5675L50.7163 36.069L50.3588 39.358C50.0727 41.503 49.0715 44.077 47.2836 46.7225C45.8533 48.8675 44.4945 50.7265 44.28 50.7265C44.1369 50.7265 42.6351 48.796 41.0618 46.365Z" fill="#D9D9D9"/>
</svg>
